<svg xmlns="http://www.w3.org/2000/svg" xmlns:xlink="http://www.w3.org/1999/xlink" width="130" height="128" viewBox="0 0 130 128"><defs><path id="odh4a" d="M383.296 730.874h115.835a6.581 6.581 0 0 1 6.581 6.582V831.9a6.581 6.581 0 0 1-6.581 6.582h-41.095c.214 11.424 6.01 16.724 6.01 16.724v2.339h-45.77v-2.339c7.821-4.066 6.415-15.31 6.205-16.724h-41.185a6.582 6.582 0 0 1-6.581-6.582v-94.444a6.582 6.582 0 0 1 6.581-6.582zm-.329 13.492v64.17a6.581 6.581 0 0 0 6.582 6.582h103.33a6.581 6.581 0 0 0 6.58-6.582v-64.17a6.582 6.582 0 0 0-6.58-6.581h-103.33a6.582 6.582 0 0 0-6.582 6.581zm57.36 80.689s-2.255-1.587-3.258.835c0 0-.942 2.518 1.42 5.023 0 0 1.25.645 2.11.215 0 0 1.613.584 2.257-.06.644-.644.76-1.521 1.19-2.023 0 0-1.892-1.16-.201-3.541 0 0-.298-.752-1.237-.893-.94-.14-2.281.444-2.281.444zm.135-.945s1.52.204 2.161-1.221c0 0-1.519-.736-2.16 1.221z"/></defs><g><g transform="translate(-376 -730)"><use fill="#303030" xlink:href="#odh4a"/></g></g></svg>