<svg xmlns="http://www.w3.org/2000/svg" xmlns:xlink="http://www.w3.org/1999/xlink" width="78" height="119" viewBox="0 0 78 119"><defs><path id="peooa" d="M287.65 735.27h64.645a6.014 6.014 0 0 1 6.013 6.013v105.989a6.014 6.014 0 0 1-6.013 6.013h-64.646a6.013 6.013 0 0 1-6.013-6.013v-105.99a6.014 6.014 0 0 1 6.013-6.013zm-1.504 106.49h67.652v-93.962h-67.652zm33.576-99.725a1.002 1.002 0 1 0 2.004 0 1.002 1.002 0 0 0-2.004 0zm-2.673 105.613a3.049 3.049 0 1 0 6.097 0 3.049 3.049 0 0 0-6.097 0z"/></defs><g><g transform="translate(-281 -735)"><use fill="#303030" xlink:href="#peooa"/></g></g></svg>